<svg xmlns="http://www.w3.org/2000/svg" viewBox="368 109 288 284" width="288" height="284" role="img" aria-label="Frowning Gorilla logo mark">
<defs>
<linearGradient id="fg-body" x1="0" y1="0" x2="1" y2="1">
<stop offset="0" stop-color="#3d5163"></stop><stop offset=".5" stop-color="#243441"></stop><stop offset="1" stop-color="#111922"></stop>
</linearGradient>
</defs>
<path fill="url(#fg-body)" fill-rule="evenodd" d="M497.0 108.5L460.0 126.5L456.5 130.0L437.5 166.0L437.5 270.0L480.5 342.0L548.0 392.5L553.0 392.5L568.0 366.5L603.0 359.5L598.5 368.0L599.0 369.5L619.0 360.5L630.0 350.5L631.0 356.5L644.5 336.0L655.5 302.0L652.5 299.0L650.5 284.0L645.5 275.0L645.5 266.0L639.5 251.0L630.0 243.5L627.0 245.5L623.5 240.0L623.5 236.0L632.5 221.0L632.5 215.0L629.5 206.0L625.0 199.5L615.5 193.0L598.5 161.0L577.0 151.5L538.0 145.5L568.5 144.0L543.0 114.5ZM429.0 182.5L367.5 296.0L418.0 296.5L463.0 329.5L429.5 272.0ZM573.0 195.5L552.5 207.0L544.5 236.0L572.0 261.5L589.5 253.0L569.5 299.0L573.5 318.0L576.0 325.5L603.0 341.5L612.0 344.5L638.5 327.0L642.5 313.0L646.5 306.0L633.0 302.5L610.0 308.5L595.0 313.5L588.0 317.5L585.5 312.0L596.0 306.5L631.0 295.5L645.0 298.5L644.5 288.0L638.5 276.0L638.5 266.0L635.5 258.0L629.0 251.5L624.0 254.5L609.0 249.5L602.5 256.0L602.5 267.0L616.0 280.5L596.5 272.0L595.5 255.0L597.5 252.0L607.0 243.5L618.5 246.0L611.0 236.5L602.0 235.5L581.0 247.5L589.0 236.5L582.0 236.5L571.0 230.5L559.5 232.0L563.5 221.0L575.0 213.5L603.0 224.5L606.0 223.5L612.0 217.5L612.0 225.5L624.5 219.0L622.5 211.0L619.0 205.5L606.0 207.5ZM489.0 198.5L474.5 207.0L474.5 226.0L480.5 234.0L488.0 240.5L490.5 240.0L492.5 234.0L484.5 225.0L487.5 215.0L485.0 214.5L481.0 217.5L480.5 211.0L487.0 206.5L491.0 207.5L496.5 212.0L497.0 219.5L501.5 212.0L501.5 207.0ZM510.0 250.5L501.5 252.0L513.0 253.5L517.5 252.0ZM613.0 256.5L610.5 260.0L611.5 266.0L628.0 274.5L628.5 272.0L625.5 265.0ZM632.0 258.5L629.5 264.0L632.0 272.5L635.5 266.0L635.5 263.0Z"></path>
</svg>